<svg width="86" height="32" viewBox="0 0 86 32" fill="none" xmlns="http://www.w3.org/2000/svg">
                                <path d="M29.3334 16.0001V12.0001C29.3334 5.33341 26.6667 2.66675 20 2.66675H12C5.33335 2.66675 2.66669 5.33341 2.66669 12.0001V20.0001C2.66669 26.6667 5.33335 29.3334 12 29.3334H16" fill="url(#paint0_linear_527_691)"></path>
                                <path d="M29.3334 16.0001V12.0001C29.3334 5.33341 26.6667 2.66675 20 2.66675H12C5.33335 2.66675 2.66669 5.33341 2.66669 12.0001V20.0001C2.66669 26.6667 5.33335 29.3334 12 29.3334H16" stroke="#0F6CBD" stroke-width="2" stroke-linecap="round" stroke-linejoin="round"></path>
                                <path d="M27.9467 23.7867L25.7734 24.5201C25.1734 24.7201 24.6934 25.1867 24.4934 25.8001L23.76 27.9734C23.1334 29.8534 20.4934 29.8134 19.9067 27.9334L17.44 20.0001C16.96 18.4267 18.4134 16.9601 19.9734 17.4534L27.92 19.9201C29.7867 20.5067 29.8134 23.1601 27.9467 23.7867Z" fill="url(#paint1_linear_527_691)" stroke="#0F6CBD" stroke-width="2" stroke-linecap="round" stroke-linejoin="round"></path>
                                <path d="M41.472 24.5V10.868H36.096V7.7H50.736V10.868H45.36V24.5H41.472ZM49.7762 24.5L57.2642 7.7H61.1042L68.6162 24.5H64.5362L58.3922 9.668H59.9282L53.7602 24.5H49.7762ZM53.5202 20.9L54.5522 17.948H63.1922L64.2482 20.9H53.5202ZM70.3592 24.5V7.7H77.6312C79.1352 7.7 80.4312 7.948 81.5192 8.444C82.6072 8.924 83.4472 9.62 84.0392 10.532C84.6312 11.444 84.9272 12.532 84.9272 13.796C84.9272 15.044 84.6312 16.124 84.0392 17.036C83.4472 17.948 82.6072 18.652 81.5192 19.148C80.4312 19.628 79.1352 19.868 77.6312 19.868H72.5192L74.2472 18.116V24.5H70.3592ZM74.2472 18.548L72.5192 16.7H77.4152C78.6152 16.7 79.5112 16.444 80.1032 15.932C80.6952 15.42 80.9912 14.708 80.9912 13.796C80.9912 12.868 80.6952 12.148 80.1032 11.636C79.5112 11.124 78.6152 10.868 77.4152 10.868H72.5192L74.2472 9.02V18.548Z" fill="black"></path>
                                <defs>
                                    <linearGradient id="paint0_linear_527_691" x1="4.33335" y1="2.25008" x2="26" y2="28.5001" gradientUnits="userSpaceOnUse">
                                        <stop stop-color="#99CDFA"></stop>
                                        <stop offset="1" stop-color="white" stop-opacity="0"></stop>
                                    </linearGradient>
                                    <linearGradient id="paint1_linear_527_691" x1="18.096" y1="17.1686" x2="27.8551" y2="28.9718" gradientUnits="userSpaceOnUse">
                                        <stop stop-color="#99CDFA"></stop>
                                        <stop offset="1" stop-color="white" stop-opacity="0"></stop>
                                    </linearGradient>
                                </defs>
                            </svg>